<svg width="40" height="40" viewBox="0 0 40 40" fill="none" xmlns="http://www.w3.org/2000/svg">
<path d="M34.1422 5.85781C30.3646 2.08039 25.3422 0 20 0C14.6578 0 9.63539 2.08039 5.85781 5.85781C2.08039 9.63539 0 14.6578 0 20C0 25.3422 2.08039 30.3646 5.85781 34.1422C9.63539 37.9196 14.6578 40 20 40C25.3422 40 30.3646 37.9196 34.1422 34.1422C37.9196 30.3646 40 25.3422 40 20C40 14.6578 37.9196 9.63539 34.1422 5.85781ZM33.3135 33.3135C30.6502 35.9769 27.3295 37.7438 23.7173 38.4633V25.596H26.3999C26.9572 25.596 27.4408 25.2184 27.5759 24.6778L28.5154 20.9202C28.6066 20.5555 28.5261 20.1765 28.2948 19.8802C28.0634 19.584 27.7152 19.4141 27.3394 19.4141H23.1314C22.8078 19.4141 22.5455 19.6764 22.5455 20C22.5455 20.3236 22.8078 20.5859 23.1314 20.5859H27.3394C27.3452 20.5859 27.359 20.5859 27.3712 20.6015C27.3833 20.617 27.3799 20.6304 27.3785 20.6361L26.4391 24.3937C26.4346 24.4116 26.4185 24.4242 26.4 24.4242H23.1314C22.8078 24.4242 22.5455 24.6866 22.5455 25.0102V38.6573C21.7084 38.7696 20.8587 38.8281 20 38.8281C14.9708 38.8281 10.2427 36.8697 6.68648 33.3135C3.13031 29.7573 1.17188 25.0292 1.17188 20C1.17188 14.9708 3.13031 10.2427 6.68648 6.68648C10.2427 3.13031 14.9708 1.17188 20 1.17188C25.0292 1.17188 29.7573 3.13031 33.3135 6.68648C36.8697 10.2427 38.8281 14.9708 38.8281 20C38.8281 25.0292 36.8697 29.7573 33.3135 33.3135Z" fill="white"/>
<path d="M27.5151 7.51514H23.7576C19.6359 7.51514 16.2828 10.8683 16.2828 14.99V19.4141H12.4849C11.8165 19.4141 11.2727 19.9579 11.2727 20.6263V24.3839C11.2727 25.0523 11.8165 25.5961 12.4849 25.5961H16.2828V39.2829C16.2828 39.6065 16.5451 38.8688 16.8687 38.8688C17.1923 38.8688 17.4547 39.6065 17.4547 39.2829V25.0101C17.4547 24.6865 17.1923 24.4242 16.8687 24.4242H12.4849C12.4626 24.4242 12.4446 24.4062 12.4446 24.3839V20.6263C12.4446 20.604 12.4626 20.586 12.4849 20.586H16.8687C17.1923 20.586 17.4547 20.3237 17.4547 20.0001V14.99C17.4547 11.5145 20.2822 8.68701 23.7576 8.68701H27.5151C27.5374 8.68701 27.5554 8.70506 27.5554 8.72732V12.4849C27.5554 12.5072 27.5374 12.5252 27.5151 12.5252H25.0101C23.6511 12.5252 22.5454 13.6308 22.5454 14.9899V19.4949C22.4019 20.586 22.8078 20.0808 23.1314 20.0808C23.455 20.0808 23.7173 19.8185 23.7173 19.4949V14.9899C23.7173 14.277 24.2972 13.6971 25.0101 13.6971H27.5151C28.1836 13.6971 28.7273 13.1533 28.7273 12.4849V8.72732C28.7273 8.05896 28.1836 7.51514 27.5151 7.51514Z" fill="white"/>
</svg>
